<svg xmlns="http://www.w3.org/2000/svg" width="256" height="256" viewBox="0 0 100 100">
<g transform="translate(0.11,-0.88) scale(1.0057)"><defs><mask id="cut" maskUnits="userSpaceOnUse" x="-20" y="-20" width="140" height="140"><rect x="-20" y="-20" width="140" height="140" fill="#fff"/><circle cx="77" cy="77" r="19" fill="#000"/></mask></defs><g mask="url(#cut)"><g transform="translate(3,3)" fill="#144496"><path d="M14,8 h64 a8,8 0 0 1 8,8 v44 a8,8 0 0 1 -8,8 h-36 l-18,16 v-16 h-10 a8,8 0 0 1 -8,-8 v-44 a8,8 0 0 1 8,-8z"/></g><g fill="#088BF5"><path d="M14,8 h64 a8,8 0 0 1 8,8 v44 a8,8 0 0 1 -8,8 h-36 l-18,16 v-16 h-10 a8,8 0 0 1 -8,-8 v-44 a8,8 0 0 1 8,-8z"/></g><g fill="#FFFFFF"><rect x="20" y="24" width="52" height="6" rx="3"/><rect x="20" y="40" width="36" height="6" rx="3"/></g></g><circle cx="78" cy="78" r="15" fill="#F78613"/><circle cx="76" cy="76" r="15" fill="#FBB945"/><circle cx="76" cy="76" r="8" fill="none" stroke="#FFFFFF" stroke-width="2.4"/><path d="M68,76 h16 M76,68 c-5,5 -5,11 0,16 c5,-5 5,-11 0,-16" fill="none" stroke="#FFFFFF" stroke-width="2"/></g>
</svg>
